<mxfile host="app.diagrams.net" agent="Mozilla/5.0 (Macintosh; Intel Mac OS X 10_15_7) AppleWebKit/537.36 (KHTML, like Gecko) Chrome/131.0.0.0 Safari/537.36" version="26.0.3">
  <diagram name="Page-1" id="tHl2jb2-iaJbwb9amwaW">
    <mxGraphModel dx="830" dy="460" grid="1" gridSize="10" guides="1" tooltips="1" connect="1" arrows="1" fold="1" page="1" pageScale="1" pageWidth="850" pageHeight="1100" math="0" shadow="0">
      <root>
        <mxCell id="0" />
        <mxCell id="1" parent="0" />
        <mxCell id="Ut9FVUIwPgH0ZGyfVbbm-16" value="Recipes" style="swimlane;fontStyle=1;childLayout=stackLayout;horizontal=1;startSize=26;fillColor=none;horizontalStack=0;resizeParent=1;resizeParentMax=0;resizeLast=0;collapsible=1;marginBottom=0;html=1;" vertex="1" parent="1">
          <mxGeometry x="40" y="40" width="140" height="104" as="geometry" />
        </mxCell>
        <mxCell id="Ut9FVUIwPgH0ZGyfVbbm-17" value="&lt;meta charset=&quot;utf-8&quot;&gt;recipe_id (PK)" style="text;strokeColor=#82b366;fillColor=#d5e8d4;align=left;verticalAlign=top;spacingLeft=4;spacingRight=4;overflow=hidden;rotatable=0;points=[[0,0.5],[1,0.5]];portConstraint=eastwest;whiteSpace=wrap;html=1;" vertex="1" parent="Ut9FVUIwPgH0ZGyfVbbm-16">
          <mxGeometry y="26" width="140" height="26" as="geometry" />
        </mxCell>
        <mxCell id="Ut9FVUIwPgH0ZGyfVbbm-18" value="&lt;meta charset=&quot;utf-8&quot;&gt;recipe_name" style="text;strokeColor=none;fillColor=none;align=left;verticalAlign=top;spacingLeft=4;spacingRight=4;overflow=hidden;rotatable=0;points=[[0,0.5],[1,0.5]];portConstraint=eastwest;whiteSpace=wrap;html=1;" vertex="1" parent="Ut9FVUIwPgH0ZGyfVbbm-16">
          <mxGeometry y="52" width="140" height="26" as="geometry" />
        </mxCell>
        <mxCell id="Ut9FVUIwPgH0ZGyfVbbm-19" value="&lt;meta charset=&quot;utf-8&quot;&gt;description" style="text;strokeColor=none;fillColor=none;align=left;verticalAlign=top;spacingLeft=4;spacingRight=4;overflow=hidden;rotatable=0;points=[[0,0.5],[1,0.5]];portConstraint=eastwest;whiteSpace=wrap;html=1;" vertex="1" parent="Ut9FVUIwPgH0ZGyfVbbm-16">
          <mxGeometry y="78" width="140" height="26" as="geometry" />
        </mxCell>
        <mxCell id="Ut9FVUIwPgH0ZGyfVbbm-20" value="Recipe_Category" style="swimlane;fontStyle=1;childLayout=stackLayout;horizontal=1;startSize=26;fillColor=none;horizontalStack=0;resizeParent=1;resizeParentMax=0;resizeLast=0;collapsible=1;marginBottom=0;html=1;" vertex="1" parent="1">
          <mxGeometry x="240" y="40" width="140" height="78" as="geometry" />
        </mxCell>
        <mxCell id="Ut9FVUIwPgH0ZGyfVbbm-21" value="recipe_id (PK)" style="text;strokeColor=#82b366;fillColor=#d5e8d4;align=left;verticalAlign=top;spacingLeft=4;spacingRight=4;overflow=hidden;rotatable=0;points=[[0,0.5],[1,0.5]];portConstraint=eastwest;whiteSpace=wrap;html=1;" vertex="1" parent="Ut9FVUIwPgH0ZGyfVbbm-20">
          <mxGeometry y="26" width="140" height="26" as="geometry" />
        </mxCell>
        <mxCell id="Ut9FVUIwPgH0ZGyfVbbm-22" value="category_id (PK)" style="text;strokeColor=#82b366;fillColor=#d5e8d4;align=left;verticalAlign=top;spacingLeft=4;spacingRight=4;overflow=hidden;rotatable=0;points=[[0,0.5],[1,0.5]];portConstraint=eastwest;whiteSpace=wrap;html=1;" vertex="1" parent="Ut9FVUIwPgH0ZGyfVbbm-20">
          <mxGeometry y="52" width="140" height="26" as="geometry" />
        </mxCell>
        <mxCell id="Ut9FVUIwPgH0ZGyfVbbm-24" style="edgeStyle=orthogonalEdgeStyle;rounded=0;orthogonalLoop=1;jettySize=auto;html=1;entryX=0;entryY=0.5;entryDx=0;entryDy=0;" edge="1" parent="1" source="Ut9FVUIwPgH0ZGyfVbbm-17" target="Ut9FVUIwPgH0ZGyfVbbm-21">
          <mxGeometry relative="1" as="geometry" />
        </mxCell>
        <mxCell id="Ut9FVUIwPgH0ZGyfVbbm-29" style="edgeStyle=orthogonalEdgeStyle;rounded=0;orthogonalLoop=1;jettySize=auto;html=1;entryX=1;entryY=0.5;entryDx=0;entryDy=0;" edge="1" parent="1" source="Ut9FVUIwPgH0ZGyfVbbm-25" target="Ut9FVUIwPgH0ZGyfVbbm-22">
          <mxGeometry relative="1" as="geometry" />
        </mxCell>
        <mxCell id="Ut9FVUIwPgH0ZGyfVbbm-25" value="Categories" style="swimlane;fontStyle=1;childLayout=stackLayout;horizontal=1;startSize=26;fillColor=none;horizontalStack=0;resizeParent=1;resizeParentMax=0;resizeLast=0;collapsible=1;marginBottom=0;html=1;" vertex="1" parent="1">
          <mxGeometry x="440" y="66" width="140" height="78" as="geometry" />
        </mxCell>
        <mxCell id="Ut9FVUIwPgH0ZGyfVbbm-26" value="&lt;meta charset=&quot;utf-8&quot;&gt;category_id (PK)" style="text;strokeColor=#82b366;fillColor=#d5e8d4;align=left;verticalAlign=top;spacingLeft=4;spacingRight=4;overflow=hidden;rotatable=0;points=[[0,0.5],[1,0.5]];portConstraint=eastwest;whiteSpace=wrap;html=1;" vertex="1" parent="Ut9FVUIwPgH0ZGyfVbbm-25">
          <mxGeometry y="26" width="140" height="26" as="geometry" />
        </mxCell>
        <mxCell id="Ut9FVUIwPgH0ZGyfVbbm-27" value="&lt;meta charset=&quot;utf-8&quot;&gt;category_name" style="text;strokeColor=none;fillColor=none;align=left;verticalAlign=top;spacingLeft=4;spacingRight=4;overflow=hidden;rotatable=0;points=[[0,0.5],[1,0.5]];portConstraint=eastwest;whiteSpace=wrap;html=1;" vertex="1" parent="Ut9FVUIwPgH0ZGyfVbbm-25">
          <mxGeometry y="52" width="140" height="26" as="geometry" />
        </mxCell>
        <mxCell id="Ut9FVUIwPgH0ZGyfVbbm-30" value="Recipe_Ingredient" style="swimlane;fontStyle=1;childLayout=stackLayout;horizontal=1;startSize=26;fillColor=none;horizontalStack=0;resizeParent=1;resizeParentMax=0;resizeLast=0;collapsible=1;marginBottom=0;html=1;" vertex="1" parent="1">
          <mxGeometry x="240" y="144" width="140" height="104" as="geometry" />
        </mxCell>
        <mxCell id="Ut9FVUIwPgH0ZGyfVbbm-31" value="&lt;meta charset=&quot;utf-8&quot;&gt;recipe_id" style="text;strokeColor=#82b366;fillColor=#d5e8d4;align=left;verticalAlign=top;spacingLeft=4;spacingRight=4;overflow=hidden;rotatable=0;points=[[0,0.5],[1,0.5]];portConstraint=eastwest;whiteSpace=wrap;html=1;" vertex="1" parent="Ut9FVUIwPgH0ZGyfVbbm-30">
          <mxGeometry y="26" width="140" height="26" as="geometry" />
        </mxCell>
        <mxCell id="Ut9FVUIwPgH0ZGyfVbbm-32" value="&lt;meta charset=&quot;utf-8&quot;&gt;ingredient_id" style="text;strokeColor=#82b366;fillColor=#d5e8d4;align=left;verticalAlign=top;spacingLeft=4;spacingRight=4;overflow=hidden;rotatable=0;points=[[0,0.5],[1,0.5]];portConstraint=eastwest;whiteSpace=wrap;html=1;" vertex="1" parent="Ut9FVUIwPgH0ZGyfVbbm-30">
          <mxGeometry y="52" width="140" height="26" as="geometry" />
        </mxCell>
        <mxCell id="Ut9FVUIwPgH0ZGyfVbbm-33" value="&lt;meta charset=&quot;utf-8&quot;&gt;quantity" style="text;strokeColor=none;fillColor=none;align=left;verticalAlign=top;spacingLeft=4;spacingRight=4;overflow=hidden;rotatable=0;points=[[0,0.5],[1,0.5]];portConstraint=eastwest;whiteSpace=wrap;html=1;" vertex="1" parent="Ut9FVUIwPgH0ZGyfVbbm-30">
          <mxGeometry y="78" width="140" height="26" as="geometry" />
        </mxCell>
        <mxCell id="Ut9FVUIwPgH0ZGyfVbbm-34" value="" style="endArrow=classic;html=1;rounded=0;" edge="1" parent="1">
          <mxGeometry width="50" height="50" relative="1" as="geometry">
            <mxPoint x="200" y="80" as="sourcePoint" />
            <mxPoint x="241" y="182" as="targetPoint" />
            <Array as="points">
              <mxPoint x="200" y="182" />
            </Array>
          </mxGeometry>
        </mxCell>
        <mxCell id="Ut9FVUIwPgH0ZGyfVbbm-35" value="Ingredients" style="swimlane;fontStyle=1;childLayout=stackLayout;horizontal=1;startSize=26;fillColor=none;horizontalStack=0;resizeParent=1;resizeParentMax=0;resizeLast=0;collapsible=1;marginBottom=0;html=1;" vertex="1" parent="1">
          <mxGeometry x="440" y="168" width="140" height="78" as="geometry" />
        </mxCell>
        <mxCell id="Ut9FVUIwPgH0ZGyfVbbm-36" value="&lt;meta charset=&quot;utf-8&quot;&gt;ingredient_id (PK)" style="text;strokeColor=#82b366;fillColor=#d5e8d4;align=left;verticalAlign=top;spacingLeft=4;spacingRight=4;overflow=hidden;rotatable=0;points=[[0,0.5],[1,0.5]];portConstraint=eastwest;whiteSpace=wrap;html=1;" vertex="1" parent="Ut9FVUIwPgH0ZGyfVbbm-35">
          <mxGeometry y="26" width="140" height="26" as="geometry" />
        </mxCell>
        <mxCell id="Ut9FVUIwPgH0ZGyfVbbm-37" value="&lt;meta charset=&quot;utf-8&quot;&gt;ingredient_name" style="text;strokeColor=none;fillColor=none;align=left;verticalAlign=top;spacingLeft=4;spacingRight=4;overflow=hidden;rotatable=0;points=[[0,0.5],[1,0.5]];portConstraint=eastwest;whiteSpace=wrap;html=1;" vertex="1" parent="Ut9FVUIwPgH0ZGyfVbbm-35">
          <mxGeometry y="52" width="140" height="26" as="geometry" />
        </mxCell>
        <mxCell id="Ut9FVUIwPgH0ZGyfVbbm-40" style="edgeStyle=orthogonalEdgeStyle;rounded=0;orthogonalLoop=1;jettySize=auto;html=1;entryX=0.929;entryY=0.423;entryDx=0;entryDy=0;entryPerimeter=0;" edge="1" parent="1">
          <mxGeometry relative="1" as="geometry">
            <mxPoint x="440" y="207" as="sourcePoint" />
            <mxPoint x="379.05999999999995" y="206.99800000000005" as="targetPoint" />
          </mxGeometry>
        </mxCell>
        <mxCell id="Ut9FVUIwPgH0ZGyfVbbm-41" value="Recipe_Step" style="swimlane;fontStyle=1;childLayout=stackLayout;horizontal=1;startSize=26;fillColor=none;horizontalStack=0;resizeParent=1;resizeParentMax=0;resizeLast=0;collapsible=1;marginBottom=0;html=1;" vertex="1" parent="1">
          <mxGeometry x="240" y="268" width="140" height="104" as="geometry" />
        </mxCell>
        <mxCell id="Ut9FVUIwPgH0ZGyfVbbm-42" value="&lt;meta charset=&quot;utf-8&quot;&gt;recipe_id" style="text;strokeColor=#82b366;fillColor=#d5e8d4;align=left;verticalAlign=top;spacingLeft=4;spacingRight=4;overflow=hidden;rotatable=0;points=[[0,0.5],[1,0.5]];portConstraint=eastwest;whiteSpace=wrap;html=1;" vertex="1" parent="Ut9FVUIwPgH0ZGyfVbbm-41">
          <mxGeometry y="26" width="140" height="26" as="geometry" />
        </mxCell>
        <mxCell id="Ut9FVUIwPgH0ZGyfVbbm-43" value="&lt;meta charset=&quot;utf-8&quot;&gt;step_id" style="text;strokeColor=#82b366;fillColor=#d5e8d4;align=left;verticalAlign=top;spacingLeft=4;spacingRight=4;overflow=hidden;rotatable=0;points=[[0,0.5],[1,0.5]];portConstraint=eastwest;whiteSpace=wrap;html=1;" vertex="1" parent="Ut9FVUIwPgH0ZGyfVbbm-41">
          <mxGeometry y="52" width="140" height="26" as="geometry" />
        </mxCell>
        <mxCell id="Ut9FVUIwPgH0ZGyfVbbm-44" value="&lt;meta charset=&quot;utf-8&quot;&gt;step_order" style="text;strokeColor=none;fillColor=none;align=left;verticalAlign=top;spacingLeft=4;spacingRight=4;overflow=hidden;rotatable=0;points=[[0,0.5],[1,0.5]];portConstraint=eastwest;whiteSpace=wrap;html=1;" vertex="1" parent="Ut9FVUIwPgH0ZGyfVbbm-41">
          <mxGeometry y="78" width="140" height="26" as="geometry" />
        </mxCell>
        <mxCell id="Ut9FVUIwPgH0ZGyfVbbm-45" value="" style="endArrow=classic;html=1;rounded=0;" edge="1" parent="1">
          <mxGeometry width="50" height="50" relative="1" as="geometry">
            <mxPoint x="200" y="180" as="sourcePoint" />
            <mxPoint x="240" y="309" as="targetPoint" />
            <Array as="points">
              <mxPoint x="200" y="309" />
            </Array>
          </mxGeometry>
        </mxCell>
        <mxCell id="Ut9FVUIwPgH0ZGyfVbbm-51" style="edgeStyle=orthogonalEdgeStyle;rounded=0;orthogonalLoop=1;jettySize=auto;html=1;entryX=1;entryY=0.5;entryDx=0;entryDy=0;" edge="1" parent="1" source="Ut9FVUIwPgH0ZGyfVbbm-47" target="Ut9FVUIwPgH0ZGyfVbbm-43">
          <mxGeometry relative="1" as="geometry" />
        </mxCell>
        <mxCell id="Ut9FVUIwPgH0ZGyfVbbm-47" value="Steps" style="swimlane;fontStyle=1;childLayout=stackLayout;horizontal=1;startSize=26;fillColor=none;horizontalStack=0;resizeParent=1;resizeParentMax=0;resizeLast=0;collapsible=1;marginBottom=0;html=1;" vertex="1" parent="1">
          <mxGeometry x="439" y="295" width="140" height="78" as="geometry" />
        </mxCell>
        <mxCell id="Ut9FVUIwPgH0ZGyfVbbm-48" value="&lt;meta charset=&quot;utf-8&quot;&gt;step_id (PK)" style="text;strokeColor=#82b366;fillColor=#d5e8d4;align=left;verticalAlign=top;spacingLeft=4;spacingRight=4;overflow=hidden;rotatable=0;points=[[0,0.5],[1,0.5]];portConstraint=eastwest;whiteSpace=wrap;html=1;" vertex="1" parent="Ut9FVUIwPgH0ZGyfVbbm-47">
          <mxGeometry y="26" width="140" height="26" as="geometry" />
        </mxCell>
        <mxCell id="Ut9FVUIwPgH0ZGyfVbbm-49" value="&lt;meta charset=&quot;utf-8&quot;&gt;step_description" style="text;strokeColor=none;fillColor=none;align=left;verticalAlign=top;spacingLeft=4;spacingRight=4;overflow=hidden;rotatable=0;points=[[0,0.5],[1,0.5]];portConstraint=eastwest;whiteSpace=wrap;html=1;" vertex="1" parent="Ut9FVUIwPgH0ZGyfVbbm-47">
          <mxGeometry y="52" width="140" height="26" as="geometry" />
        </mxCell>
      </root>
    </mxGraphModel>
  </diagram>
</mxfile>
